<?xml version="1.0" encoding="UTF-8"?>
<svg id="Layer_1" data-name="Layer 1" xmlns="http://www.w3.org/2000/svg" viewBox="0 0 512 512">
  <defs>
    <style>
      .cls-1 {
        fill: #df7126;
      }

      .cls-2 {
        fill: #e27925;
      }

      .cls-3 {
        fill: #515354;
      }

      .cls-4 {
        fill: #fff;
        font-family: Roboto-Light, Roboto;
        font-size: 100px;
        font-weight: 300;
        isolation: isolate;
      }
    </style>
  </defs>
  <g id="BG">
    <circle class="cls-3" cx="256" cy="256" r="256"/>
  </g>
  <g id="Controller">
    <g>
      <path d="M473.28,292.95c1.17,10.27,2.83,20.62,2.61,30.91-.55,23.62-20.08,44.97-43.42,48.79-24.6,4-46.25-6.93-58.03-29.1-9.37-17.63-18.93-35.17-28.41-52.74-.28-.49-.59-.98-.86-1.46-27.46,14.28-59.52-5.71-60.01-35.78h-58.15c-.72,14.92-6.96,26.88-19.95,34.62-12.92,7.69-26.33,7.54-39.97,1.01-3.75,6.97-7.44,13.88-11.18,20.77-7,12.92-13.49,26.17-21.17,38.68-20.29,33.1-69.16,33.16-90.11,.41-7.19-11.26-9.73-23.48-8.08-36.67,2.43-19.4,4.8-38.8,7.24-58.19,2.94-23.55,5.92-47.1,8.89-70.64,1.37-10.86,2.1-21.85,4.24-32.56,6.28-31.37,24.7-52.98,54.77-63.8,34.54-12.44,73.06,.07,94.68,30,1.52,2.12,3.02,2.95,5.68,2.95,29.7-.12,59.4-.09,89.09-.04,1.88,.01,3.01-.52,4.11-2.06,12.72-17.88,29.86-29.15,51.31-33.73,14.28-3.05,28.39-2.25,42.3,2.3,21.08,6.89,36.98,20.06,47.73,39.38,5.6,10.06,8.61,20.93,9.91,32.36,1.76,15.27,3.85,30.51,5.75,45.77,1.77,14.09,3.46,28.19,5.22,42.3,1.95,15.51,4.05,30.99,5.81,46.52Zm-46.46-128.96c.07-9.06-6.99-16.23-16.07-16.37-8.94-.13-16.31,7.05-16.46,16.03-.15,8.83,7.19,16.27,16.13,16.38,9,.1,16.34-7.09,16.4-16.04Zm-34.81,34.83c.04-8.89-7.26-16.26-16.21-16.35-8.93-.08-16.25,7.2-16.26,16.19-.01,9.09,7.11,16.3,16.1,16.34,8.93,.03,16.33-7.28,16.37-16.18Zm-.13-69.87c.01-8.98-7.26-16.27-16.23-16.27s-16.18,7.22-16.15,16.27c.01,9.22,6.97,16.23,16.14,16.26,8.92,.03,16.22-7.29,16.24-16.26Zm-31.31,124.77c.11-19.31-15.19-34.75-34.57-34.89-18.99-.12-34.63,15.27-34.74,34.21-.12,19.35,15.09,34.82,34.43,35.03,19.06,.23,34.79-15.27,34.88-34.35Zm-19.75-73.59c8.94,0,16.23-7.34,16.21-16.3-.03-9.1-7.11-16.14-16.26-16.15-8.98,0-16.26,7.24-16.27,16.22-.02,8.9,7.38,16.24,16.32,16.23Zm-154.49,107.96c19.29-.01,34.74-15.49,34.71-34.75,0-19.11-15.54-34.54-34.71-34.5-19.19,.03-34.62,15.47-34.59,34.61,0,19.14,15.51,34.67,34.59,34.64Zm-3.99-110.88c0-7.28,0-14.54,0-21.82,0-3.67-.85-4.48-4.64-4.5h-23.55c-.12-.98-.23-1.54-.24-2.12-.04-7.44-.07-14.88-.11-22.31-.03-3.06-.82-3.94-3.83-3.95-7.61-.03-15.22-.03-22.83,0-2.86,.01-3.73,.89-3.74,3.79-.03,6.69-.01,13.39,0,20.08v4.51h-24.55c-2.13,0-3.91,.57-3.91,3.15-.04,8.1-.04,16.22-.01,24.34,.01,2.06,1.25,2.99,3.22,3.02,2.26,.03,4.51,0,6.77,0h18.48v3.46c0,6.95-.03,13.89,0,20.82,.01,3.41,.9,4.26,4.35,4.26,7.2,0,14.38,0,21.58,0,3.62,0,4.46-.82,4.46-4.36,0-7.12,0-14.22,0-21.33v-2.85h3.09c7.12,0,14.22,0,21.33,0,3.29,0,4.11-.86,4.11-4.2Z"/>
      <path class="cls-1" d="M410.74,147.62c9.09,.13,16.14,7.3,16.07,16.37-.05,8.95-7.4,16.14-16.41,16.05-8.94-.11-16.27-7.54-16.13-16.38,.16-8.99,7.53-16.17,16.47-16.04Z"/>
      <path class="cls-1" d="M375.8,182.47c8.94,.09,16.25,7.46,16.21,16.35-.04,8.9-7.44,16.21-16.37,16.18-8.99-.04-16.11-7.25-16.1-16.34,.02-8.99,7.34-16.27,16.26-16.19Z"/>
      <path class="cls-1" d="M375.64,112.68c8.97,0,16.25,7.29,16.23,16.27-.01,8.97-7.32,16.29-16.25,16.26-9.17-.03-16.13-7.04-16.14-16.26-.02-9.04,7.16-16.27,16.16-16.27Z"/>
      <path class="cls-1" d="M326,218.83c19.37,.13,34.67,15.58,34.57,34.89-.09,19.08-15.82,34.58-34.87,34.36-19.35-.21-34.55-15.69-34.43-35.03,.1-18.94,15.74-34.34,34.73-34.22Z"/>
      <path class="cls-1" d="M357.03,163.83c.03,8.95-7.26,16.29-16.21,16.3-8.94,0-16.34-7.33-16.33-16.23,.01-8.98,7.29-16.23,16.27-16.22,9.16,0,16.24,7.05,16.27,16.15Z"/>
      <path class="cls-1" d="M221.05,253.34c.03,19.27-15.42,34.74-34.71,34.75-19.08,.03-34.58-15.5-34.59-34.65-.03-19.13,15.41-34.58,34.59-34.61,19.17-.04,34.69,15.4,34.71,34.51Z"/>
      <path class="cls-1" d="M182.35,155.39c0,7.28,0,14.54,0,21.82,0,3.34-.82,4.19-4.11,4.2-7.11,0-14.21,0-21.33,0h-3.09v2.85c0,7.11,0,14.21,0,21.33,0,3.54-.84,4.36-4.46,4.36-7.2,0-14.38,0-21.58,0-3.45,0-4.34-.85-4.35-4.26-.03-6.93,0-13.88,0-20.82v-3.46h-18.48c-2.26,0-4.51,0-6.77,0-1.97-.03-3.21-.96-3.22-3.02-.03-8.12-.03-16.23,.01-24.34,0-2.58,1.78-3.15,3.91-3.15h24.55v-4.51c-.01-6.69-.03-13.39,0-20.08,.01-2.9,.88-3.78,3.74-3.79,7.61-.03,15.22-.03,22.83,0,3.01,.01,3.81,.89,3.83,3.95,.04,7.44,.07,14.88,.11,22.31,0,.57,.12,1.13,.24,2.12h23.55c3.79,.02,4.63,.83,4.64,4.5Z"/>
    </g>
  </g>
  <g id="Text">
    <text class="cls-4" transform="translate(145.16 403.45)"><tspan x="0" y="0">2023</tspan></text>
  </g>
</svg>